# xmcd CD database file
#
# Track frame offsets:
#	150
#	14879
#	30391
#	44375
#	54777
#	68439
#	79162
#	90512
#	106286
#	122218
#	142231
#	148454
#
# Disc length: 2079 seconds
#
# Revision: 0
# Processed by: cddbd v1.5.1PL2 Copyright (c) Steve Scherf et al.
# Submitted via: CDex 1.51
#
DISCID=a7081d0c
DTITLE=Fairy Dreams - Magical Lullabies
DYEAR=1900
DGENRE=New Age
TTITLE0=Winter Lights
TTITLE1=Hush, Little Baby
TTITLE2=I Bid You Goodnight
TTITLE3=Dream a Beatiful Dream
TTITLE4=All the World Is Sleeping
TTITLE5=Go Away, Little Fairies
TTITLE6=Lullaby
TTITLE7=Irish Lullaby
TTITLE8=Moon and Me
TTITLE9=There, There, Hush Awhile
TTITLE10=Hush-A-Bye
TTITLE11=Sleep, Baby, Sleep
EXTD=
EXTT0=
EXTT1=
EXTT2=
EXTT3=
EXTT4=
EXTT5=
EXTT6=
EXTT7=
EXTT8=
EXTT9=
EXTT10=
EXTT11=
PLAYORDER=
